<svg width="47" height="46" viewBox="0 0 47 46" fill="none" xmlns="http://www.w3.org/2000/svg">
<path fill-rule="evenodd" clip-rule="evenodd" d="M23.4999 45.8333C36.1568 45.8333 46.4166 35.5735 46.4166 22.9167C46.4166 10.2598 36.1568 0 23.4999 0C10.843 0 0.583252 10.2598 0.583252 22.9167C0.583252 35.5735 10.843 45.8333 23.4999 45.8333ZM35.8085 15.6635C35.9157 15.5531 35.9995 15.4222 36.055 15.2786C36.1105 15.1351 36.1365 14.9818 36.1315 14.8279C36.1265 14.6741 36.0905 14.5229 36.0257 14.3832C35.9609 14.2436 35.8687 14.1185 35.7545 14.0153C35.6403 13.9121 35.5065 13.8329 35.361 13.7826C35.2155 13.7323 35.0614 13.7118 34.9079 13.7223C34.7543 13.7328 34.6044 13.7742 34.4672 13.8439C34.33 13.9136 34.2082 14.0103 34.1092 14.1281L20.3833 29.2955L12.8322 22.0871C12.6125 21.8771 12.3184 21.763 12.0145 21.7699C11.7107 21.7767 11.422 21.904 11.212 22.1237C11.002 22.3435 10.8879 22.6376 10.8948 22.9414C10.9017 23.2453 11.029 23.534 11.2487 23.744L19.6522 31.7648L20.5036 32.5783L21.293 31.7052L35.8073 15.6635H35.8085Z" fill="#0FA2DB"/>
</svg>
