<svg width="36" height="41" viewBox="0 0 36 41" fill="none" xmlns="http://www.w3.org/2000/svg">
<path fill-rule="evenodd" clip-rule="evenodd" d="M17.9929 1.64996C11.884 1.59222 5.95045 3.69166 1.23721 7.57862C0.917649 7.84215 0.444952 7.79674 0.181413 7.47718C-0.0821269 7.15762 -0.0367116 6.68492 0.28285 6.42138C5.26762 2.31049 11.5427 0.0897569 18.0036 0.149998C24.2908 0.150823 31.1601 2.34662 35.7426 6.48328C36.0501 6.76083 36.0743 7.23509 35.7967 7.54256C35.5192 7.85002 35.0449 7.87427 34.7375 7.59672C30.4808 3.75415 23.9919 1.65 18 1.65L17.9929 1.64996ZM17.9889 8.39008C17.997 8.38996 18.0052 8.38997 18.0133 8.39011C21.9933 8.4604 25.8516 9.7744 29.0472 12.1479C29.3069 12.3408 29.4137 12.6784 29.3121 12.9855C29.2105 13.2926 28.9235 13.5 28.6 13.5H7.33003C7.0064 13.5 6.71928 13.2924 6.61783 12.9851C6.51639 12.6778 6.6235 12.3401 6.88353 12.1474C10.1009 9.76354 13.9851 8.44937 17.9889 8.39008ZM9.90502 12H26.0301C23.5707 10.6709 20.8182 9.94184 17.999 9.8901C15.1587 9.93412 12.384 10.6634 9.90502 12ZM13.3905 22.45H22.6102C22.5025 21.138 22.1062 20.1103 21.4808 19.3887C20.7552 18.5517 19.6373 18.03 18.02 18.03C16.4023 18.03 15.2726 18.5521 14.5365 19.3919C13.9036 20.114 13.5004 21.1411 13.3905 22.45ZM13.4085 18.4031C14.4825 17.1779 16.0578 16.53 18.02 16.53C19.9827 16.53 21.5499 17.1783 22.6143 18.4062C23.6642 19.6175 24.14 21.2948 24.14 23.2C24.14 23.6142 23.8042 23.95 23.39 23.95H12.61C12.1958 23.95 11.86 23.6142 11.86 23.2C11.86 21.291 12.3478 19.6133 13.4085 18.4031ZM13.7177 25.4629C15.0505 25.0544 16.7643 24.61 18 24.61C19.2357 24.61 20.9495 25.0544 22.2823 25.4629C22.9644 25.672 23.5746 25.8807 24.0142 26.0371C24.2343 26.1154 24.4121 26.1808 24.5355 26.2268C24.5972 26.2498 24.6454 26.268 24.6784 26.2805L24.7164 26.295L24.7265 26.2989L24.7293 26.3L24.7304 26.3004C24.7305 26.3005 24.7306 26.3005 24.46 27C25.2097 26.9782 25.2097 26.9784 25.2097 26.9785L25.2099 26.9838L25.2102 26.9978L25.2115 27.0501C25.2124 27.0955 25.2137 27.1615 25.2148 27.2459C25.2171 27.4147 25.219 27.657 25.2172 27.9543C25.2137 28.548 25.1959 29.3642 25.1385 30.2522C25.0811 31.138 24.9836 32.1077 24.8179 33.0046C24.6548 33.8867 24.4149 34.7621 24.0427 35.4195C23.3423 36.6565 21.8846 37.9483 20.6939 38.8856C20.083 39.3665 19.5128 39.7765 19.0956 40.0662C18.8867 40.2112 18.7155 40.3266 18.5958 40.4061C18.536 40.4459 18.489 40.4767 18.4566 40.4978L18.4191 40.5222L18.409 40.5287L18.4061 40.5306L18.4052 40.5311C18.4051 40.5312 18.4048 40.5314 18 39.9C17.5992 40.5339 17.5992 40.5339 17.5991 40.5338L17.595 40.5312L17.5848 40.5248L17.5472 40.5006C17.5147 40.4797 17.4675 40.4492 17.4075 40.4098C17.2875 40.3311 17.1159 40.2169 16.9065 40.0733C16.4883 39.7863 15.9169 39.38 15.305 38.9026C14.1132 37.9729 12.6526 36.6874 11.9561 35.4473C11.587 34.7902 11.3487 33.9134 11.1863 33.0291C11.0211 32.1299 10.9233 31.1569 10.8654 30.2675C10.8073 29.376 10.7886 28.5563 10.7843 27.9599C10.7821 27.6614 10.7836 27.4179 10.7856 27.2484C10.7866 27.1636 10.7878 27.0973 10.7887 27.0517L10.7898 26.9992L10.7902 26.9852L10.7903 26.9802C10.7903 26.9801 10.7903 26.9796 11.54 27C11.2695 26.3005 11.2695 26.3005 11.2696 26.3004L11.2707 26.3L11.2735 26.2989L11.2837 26.295L11.3217 26.2805C11.3547 26.268 11.4028 26.2498 11.4645 26.2268C11.5879 26.1808 11.7658 26.1154 11.9858 26.0371C12.4255 25.8807 13.0357 25.672 13.7177 25.4629ZM11.54 27L11.2696 26.3004C10.9876 26.4095 10.7985 26.678 10.7903 26.9802L11.54 27ZM12.2835 27.524C12.283 27.647 12.2831 27.7898 12.2842 27.9491C12.2884 28.5256 12.3065 29.3152 12.3622 30.17C12.418 31.0269 12.5108 31.937 12.6616 32.7581C12.8151 33.5941 13.018 34.2748 13.264 34.7127C13.7974 35.6625 15.0319 36.7871 16.2276 37.7199C16.8094 38.1738 17.3549 38.5618 17.7551 38.8364C17.8435 38.897 17.9246 38.952 17.9974 39.0009C18.0702 38.9514 18.1515 38.8956 18.2401 38.8341C18.6397 38.5566 19.1846 38.1647 19.7661 37.7069C20.9605 36.7667 22.1978 35.6335 22.7374 34.6805C22.9851 34.2429 23.189 33.5645 23.3428 32.732C23.494 31.9142 23.5864 31.0082 23.6416 30.1553C23.6966 29.3045 23.7139 28.5189 23.7172 27.9454C23.7182 27.7877 23.718 27.6463 23.7174 27.5243C23.6541 27.5014 23.5853 27.4766 23.5115 27.4504C23.0867 27.2993 22.4982 27.098 21.8427 26.8971C20.5005 26.4856 18.9843 26.11 18 26.11C17.0157 26.11 15.4995 26.4856 14.1573 26.8971C13.5019 27.098 12.9133 27.2993 12.4886 27.4504C12.4151 27.4765 12.3466 27.5011 12.2835 27.524ZM18 39.9L17.5991 40.5338C17.8453 40.6895 18.16 40.6883 18.4052 40.5311L18 39.9ZM24.46 27L25.2097 26.9785C25.201 26.6767 25.012 26.4093 24.7304 26.3004L24.46 27Z" fill="#0FA2DB"/>
<path fill-rule="evenodd" clip-rule="evenodd" d="M16.2634 28.3634C16.7231 27.9037 17.3455 27.6438 17.9957 27.64L18 28.39L18.0044 27.64C18.6543 27.6438 19.2763 27.9047 19.7346 28.3656C20.1923 28.8261 20.4495 29.4488 20.45 30.0981C20.4514 30.421 20.3881 30.741 20.2639 31.0391C20.192 31.2115 20.1007 31.3746 19.9919 31.5252L20.4518 34.6094C20.484 34.8252 20.4206 35.0444 20.2781 35.2097C20.1356 35.375 19.9282 35.47 19.71 35.47H16.3C16.0825 35.47 15.8758 35.3756 15.7333 35.2113C15.5909 35.047 15.5267 34.8289 15.5576 34.6136L15.9998 31.5275C15.8902 31.3762 15.7983 31.2124 15.7261 31.0391C15.6017 30.7404 15.5384 30.4198 15.54 30.0963L15.54 30.0957C15.5438 29.4455 15.8037 28.8231 16.2634 28.3634ZM20.45 30.0981C20.45 30.0987 20.45 30.0994 20.45 30.1L19.7 30.1L20.45 30.0963C20.45 30.0969 20.45 30.0975 20.45 30.0981ZM18 29.14C17.7463 29.1426 17.5036 29.2446 17.3241 29.4241C17.1436 29.6045 17.0416 29.8488 17.04 30.104C17.0394 30.2269 17.0635 30.3487 17.1107 30.4622C17.1581 30.5757 17.2277 30.6786 17.3154 30.7648C17.4857 30.932 17.5663 31.1702 17.5324 31.4064L17.1651 33.97H18.8399L18.4582 31.4106C18.4228 31.1731 18.5032 30.933 18.6746 30.7648C18.7623 30.6786 18.8319 30.5757 18.8793 30.4622C18.9266 30.3486 18.9506 30.2268 18.95 30.1037L18.95 30.1C18.95 29.8464 18.8496 29.603 18.6708 29.4231C18.493 29.2443 18.252 29.1426 18 29.14Z" fill="#0FA2DB"/>
</svg>
