<svg width="57" height="55" viewBox="0 0 57 55" fill="none" xmlns="http://www.w3.org/2000/svg">
<path fill-rule="evenodd" clip-rule="evenodd" d="M27.2812 3.94788C14.2971 3.94788 3.72913 14.5159 3.72913 27.5C3.72913 40.484 14.2971 51.052 27.2812 51.052C40.2653 51.052 50.8333 40.484 50.8333 27.5C50.8333 14.5159 40.2653 3.94788 27.2812 3.94788ZM0.729126 27.5C0.729126 12.859 12.6403 0.947876 27.2812 0.947876C41.9221 0.947876 53.8333 12.859 53.8333 27.5C53.8333 42.1409 41.9221 54.052 27.2812 54.052C12.6403 54.052 0.729126 42.1409 0.729126 27.5Z" fill="black"/>
<path fill-rule="evenodd" clip-rule="evenodd" d="M50.7278 4.63867C48.8884 5.32308 46.4361 6.61255 43.3994 8.58145C42.7043 9.03213 41.7754 8.83397 41.3247 8.13886C40.8741 7.44375 41.0722 6.5149 41.7673 6.06422C44.892 4.03833 47.5518 2.61947 49.6817 1.82699C50.7454 1.43121 51.7308 1.17112 52.6094 1.08989C53.4707 1.01026 54.3808 1.08892 55.156 1.54249C55.9994 2.03597 56.4618 2.84145 56.6041 3.73807C56.7368 4.5747 56.5971 5.48866 56.3213 6.40371C55.7675 8.24075 54.5128 10.5675 52.6215 13.3185C45.0546 24.3249 28.7934 40.0334 16.316 48.1231C13.1913 50.149 10.5316 51.5679 8.40166 52.3604C7.33795 52.7561 6.35252 53.0162 5.47391 53.0975C4.61262 53.1771 3.70257 53.0984 2.92738 52.6448C2.08399 52.1514 1.62153 51.3459 1.47927 50.4493C1.34653 49.6126 1.48624 48.6987 1.76208 47.7836C2.31584 45.9466 3.57058 43.6198 5.46186 40.8689C5.93119 40.1862 6.86506 40.0133 7.54772 40.4826C8.23037 40.9519 8.40331 41.8858 7.93398 42.5685C6.1013 45.2342 5.05396 47.2577 4.63442 48.6495C4.4236 49.3488 4.40886 49.769 4.44221 49.9792C4.44873 50.0202 4.45621 50.0478 4.46188 50.0647C4.52447 50.0907 4.73341 50.1531 5.19773 50.1102C5.7209 50.0618 6.43452 49.8913 7.35552 49.5487C9.19499 48.8643 11.6472 47.5748 14.684 45.6059C26.8525 37.7164 42.8205 22.2791 50.1494 11.6189C51.982 8.95316 53.0294 6.92966 53.4489 5.53786C53.6597 4.8385 53.6745 4.41838 53.6411 4.20818C53.6346 4.16711 53.6271 4.13955 53.6215 4.1226C53.5589 4.0966 53.3499 4.03422 52.8856 4.07715C52.3624 4.12552 51.6488 4.296 50.7278 4.63867Z" fill="black"/>
<path fill-rule="evenodd" clip-rule="evenodd" d="M22.2589 1.46007C22.8302 1.2332 23.4822 1.37789 23.9039 1.82516L34.8237 13.4068C35.0172 13.4015 35.2119 13.4337 35.3966 13.5038L39.3237 14.9934C39.6843 15.1302 39.9784 15.4007 40.1449 15.7487L41.6345 18.8632C41.6931 18.9859 41.7348 19.1159 41.7584 19.2498L42.1647 21.5518C42.2799 22.2046 41.953 22.8556 41.3606 23.153C40.7682 23.4505 40.0509 23.3238 39.5961 22.8415L34.0538 16.9633L31.5896 18.1529C31.1811 18.3501 30.7053 18.3519 30.2954 18.1577L25.1495 15.7202C24.9244 15.6136 24.7294 15.4525 24.5821 15.2516L21.6029 11.1891C21.4142 10.9319 21.3125 10.6211 21.3125 10.3021V2.85418C21.3125 2.23945 21.6876 1.68694 22.2589 1.46007ZM31.8954 14.674L24.3125 6.63164V9.81104L26.7768 13.1715L30.9314 15.1394L31.8954 14.674ZM12.3854 15.7292C11.318 15.7292 10.5 16.5472 10.5 17.6146C10.5 18.682 11.318 19.5 12.3854 19.5C13.4528 19.5 14.2708 18.682 14.2708 17.6146C14.2708 16.5472 13.4528 15.7292 12.3854 15.7292ZM7.50001 17.6146C7.50001 14.8903 9.66117 12.7292 12.3854 12.7292C15.1097 12.7292 17.2708 14.8903 17.2708 17.6146C17.2708 20.1758 15.3607 22.2392 12.8683 22.4771C12.925 22.5028 12.9803 22.532 13.0339 22.5649L17.2318 25.1378C17.4171 25.2513 17.5755 25.4038 17.696 25.5846L20.4043 29.6471C20.4841 29.7668 20.5462 29.8973 20.5889 30.0346L21.5643 33.1776L26.1894 34.4495C26.9723 34.6648 27.4417 35.464 27.2486 36.2526C27.0555 37.0412 26.27 37.5331 25.4762 37.3623L2.18455 32.3519C1.69359 32.2463 1.28806 31.902 1.10418 31.4347C0.920298 30.9673 0.982474 30.439 1.26982 30.0272L5.33232 24.2042C5.5496 23.8928 5.87691 23.6754 6.24821 23.5958L11.6274 22.4431C9.27092 22.0853 7.50001 20.0807 7.50001 17.6146ZM18.2897 32.7477L17.7879 31.1308L15.3828 27.5232L11.9777 25.4362L7.45459 26.4054L5.02108 29.8934L18.2897 32.7477ZM51.5501 17.1856C52.1551 17.5958 52.3764 18.3823 52.0739 19.0478L50.0426 23.5166C49.9566 23.7058 49.8322 23.8751 49.6773 24.0137L47.1044 26.3158C46.8293 26.5619 46.4732 26.6979 46.1042 26.6979H44.2083C43.6072 26.6979 43.0641 26.3391 42.8285 25.7861C42.5928 25.2331 42.71 24.5928 43.1263 24.1591L49.6263 17.3883C50.1325 16.861 50.9451 16.7753 51.5501 17.1856ZM36.4664 24.5894C36.3069 23.3965 35.2271 22.5514 34.0165 22.6321L34.0102 22.6325C32.7336 22.7123 31.8082 23.8339 31.8925 25.0982L31.8929 25.1044C31.9619 26.2076 32.8088 27.0485 33.8536 27.2022L36.4664 24.5894ZM33.8198 19.6386C36.6169 19.4536 39.2853 21.5071 39.4763 24.5627C39.4782 24.5938 39.4792 24.625 39.4792 24.6563V25.1979C39.4792 25.5958 39.3211 25.9773 39.0398 26.2586L35.519 29.7794C35.2621 30.0363 34.9207 30.1913 34.5581 30.2154C31.7609 30.4019 29.0917 28.3496 28.899 25.2948C28.7141 22.4986 30.766 19.8313 33.8198 19.6386ZM52.8131 33.6446C53.1111 34.1503 53.0869 34.7834 52.7509 35.2647L43.678 48.2647C43.3617 48.718 42.8217 48.9605 42.2728 48.896C41.7239 48.8315 41.2549 48.4703 41.0523 47.9561L39.6032 44.2775L38.0034 44.0109C37.2312 43.8821 36.6878 43.1812 36.7556 42.4013L37.0265 39.2867C37.066 38.8328 37.3096 38.4214 37.6888 38.1686L44.1888 33.8353C44.3912 33.7003 44.6235 33.6166 44.8654 33.5914L51.3654 32.9143C51.9493 32.8535 52.515 33.1389 52.8131 33.6446ZM45.5447 36.5369L39.9527 40.2648L39.8645 41.2797L40.9341 41.4579C41.4538 41.5445 41.89 41.8975 42.0831 42.3877L42.8185 44.2544L48.4132 36.2381L45.5447 36.5369ZM29.8966 37.826C30.7003 37.6251 31.5147 38.1138 31.7156 38.9175L32.5281 42.1675C32.6295 42.5729 32.5571 43.0023 32.3284 43.3521L30.0263 46.873C29.8696 47.1127 29.6475 47.3025 29.3864 47.42L23.9697 49.8575C23.8481 49.9122 23.7198 49.9504 23.5881 49.9712L15.8694 51.19C15.0511 51.3192 14.283 50.7606 14.1538 49.9423C14.0246 49.124 14.5832 48.3559 15.4015 48.2267L22.9218 47.0393L27.7554 44.8642L29.4587 42.2591L28.8052 39.6451C28.6043 38.8414 29.0929 38.027 29.8966 37.826Z" fill="black"/>
</svg>
