<svg width="39" height="56" viewBox="0 0 39 56" fill="none" xmlns="http://www.w3.org/2000/svg">
<path fill-rule="evenodd" clip-rule="evenodd" d="M16.8756 29.6694L2.34272 2.33415C2.25923 2.17712 2.20748 2.00519 2.19044 1.82817C2.17339 1.65114 2.19138 1.47249 2.24338 1.30242C2.34839 0.958948 2.58554 0.671256 2.90267 0.502636C3.2198 0.334017 3.59092 0.298282 3.93439 0.403292C4.10447 0.455288 4.26263 0.540273 4.39986 0.653395C4.53709 0.766516 4.65069 0.905559 4.73418 1.06258L19.2685 28.3978L21.3295 27.3009C21.9577 26.967 22.6455 26.76 23.3536 26.6919C24.0618 26.6238 24.7764 26.6959 25.4567 26.904C26.137 27.1121 26.7697 27.4522 27.3186 27.9048C27.8674 28.3575 28.3217 28.9138 28.6555 29.5421L29.533 31.1928L38.8362 44.8076L27.0035 51.0977L22.9044 42.9957L20.4886 44.2185L24.612 52.3706L19.5393 55.0667L13.4523 39.7403L12.5762 38.0909C12.2421 37.4628 12.0351 36.7751 11.9669 36.067C11.8987 35.3589 11.9707 34.6443 12.1787 33.964C12.3866 33.2837 12.7266 32.651 13.1791 32.1021C13.6316 31.5532 14.1878 31.0988 14.816 30.7649L16.877 29.6694H16.8756ZM22.5997 29.6937L16.0862 33.1563C15.7721 33.3233 15.494 33.5505 15.2677 33.825C15.0415 34.0994 14.8715 34.4157 14.7675 34.7559C14.6635 35.096 14.6275 35.4533 14.6616 35.8074C14.6957 36.1614 14.7993 36.5053 14.9663 36.8194L15.8424 38.4687L27.1402 32.4616L26.2627 30.8136C26.0958 30.4996 25.8686 30.2215 25.5941 29.9952C25.3197 29.7689 25.0033 29.599 24.6632 29.495C24.323 29.391 23.9657 29.355 23.6117 29.3891C23.2576 29.4232 22.9137 29.5267 22.5997 29.6937Z" fill="black"/>
<path d="M11.0608 42.8833C10.8311 42.6073 10.5012 42.4339 10.1436 42.4012C9.78608 42.3684 9.43016 42.479 9.15413 42.7086H9.15683L9.14194 42.7194L9.05663 42.7844C8.93545 42.8755 8.81172 42.9631 8.68558 43.0471C8.34975 43.2706 7.84871 43.5752 7.20413 43.8813C5.5473 44.6776 3.73404 45.0953 1.89579 45.1041C1.53665 45.1041 1.19221 45.2468 0.938252 45.5007C0.684297 45.7547 0.541626 46.0991 0.541626 46.4583C0.541626 46.8174 0.684297 47.1618 0.938252 47.4158C1.19221 47.6698 1.53665 47.8124 1.89579 47.8124C4.13694 47.8038 6.34806 47.2963 8.36871 46.3269C8.99901 46.0285 9.60722 45.6854 10.1887 45.3004C10.4064 45.1548 10.6187 45.0012 10.8252 44.84L10.8658 44.8089L10.8793 44.7981L10.8834 44.7926H10.8861L10.8875 44.7899C11.1632 44.56 11.3363 44.23 11.3688 43.8725C11.4014 43.5149 11.2905 43.1591 11.0608 42.8833ZM13.8558 49.7692C13.9545 49.9171 14.0231 50.0831 14.0577 50.2576C14.0923 50.432 14.0921 50.6116 14.0573 50.786C14.0225 50.9604 13.9536 51.1263 13.8547 51.2741C13.7557 51.4219 13.6287 51.5487 13.4807 51.6474L13.478 51.6501L13.4726 51.6528L13.459 51.661L13.417 51.6881C13.1826 51.8372 12.9446 51.9808 12.7034 52.1187C12.2281 52.3909 11.5524 52.7524 10.7399 53.1126C9.14194 53.8236 6.90756 54.5833 4.60413 54.5833C4.24498 54.5833 3.90054 54.4406 3.64659 54.1866C3.39263 53.9327 3.24996 53.5882 3.24996 53.2291C3.24996 52.8699 3.39263 52.5255 3.64659 52.2716C3.90054 52.0176 4.24498 51.8749 4.60413 51.8749C6.36183 51.8749 8.19267 51.2804 9.64027 50.6372C10.3944 50.3007 11.1263 49.9163 11.8313 49.4862C11.8708 49.4629 11.9096 49.4385 11.9478 49.4131L11.9749 49.3968L11.9776 49.3941C12.1255 49.2954 12.2915 49.2268 12.4659 49.1922C12.6404 49.1576 12.82 49.1578 12.9944 49.1926C13.1688 49.2274 13.3346 49.2963 13.4824 49.3952C13.6302 49.4941 13.7571 49.6212 13.8558 49.7692Z" fill="black"/>
</svg>
