<svg width="57" height="55" viewBox="0 0 57 55" fill="none" xmlns="http://www.w3.org/2000/svg">
<path d="M29.1157 0.205052C19.4355 0.179662 10.9169 5.18796 6.04829 12.7544C5.83247 13.0908 6.07368 13.5351 6.47358 13.5351H10.936C11.2407 13.5351 11.5263 13.4018 11.7167 13.167C12.1611 12.6274 12.6372 12.1069 13.1386 11.6118C15.208 9.5488 17.6137 7.9238 20.2924 6.79392C23.06 5.62595 26.0053 5.02927 29.0458 5.02927C32.0864 5.02927 35.0317 5.6196 37.7993 6.79392C40.478 7.9238 42.8837 9.5488 44.9531 11.6118C47.0224 13.6748 48.6411 16.0805 49.7773 18.7529C50.9516 21.5205 51.5419 24.4594 51.5419 27.5C51.5419 30.5405 50.9453 33.4795 49.7773 36.247C48.6474 38.9194 47.0224 41.3252 44.9531 43.3882C42.8837 45.4511 40.478 47.0761 37.7993 48.206C35.0295 49.3759 32.0525 49.976 29.0458 49.9707C26.0053 49.9707 23.06 49.374 20.2924 48.206C17.619 47.0773 15.1896 45.4412 13.1386 43.3882C12.6372 42.8867 12.1674 42.3662 11.7167 41.833C11.5263 41.5981 11.2343 41.4648 10.936 41.4648H6.47358C6.07368 41.4648 5.82612 41.9092 6.04829 42.2456C10.9106 49.7929 19.3911 54.7949 29.0458 54.7949C44.039 54.7949 56.2138 42.728 56.3662 27.7793C56.5185 12.5893 44.3247 0.243138 29.1157 0.205052ZM21.0745 34.6093V29.7851H1.14282C0.863525 29.7851 0.63501 29.5566 0.63501 29.2773V25.7226C0.63501 25.4433 0.863525 25.2148 1.14282 25.2148H21.0745V20.3906C21.0745 19.9653 21.5696 19.7241 21.8997 19.9907L30.907 27.1001C30.9677 27.1476 31.0168 27.2083 31.0505 27.2776C31.0843 27.3468 31.1018 27.4229 31.1018 27.5C31.1018 27.577 31.0843 27.6531 31.0505 27.7224C31.0168 27.7917 30.9677 27.8524 30.907 27.8999L21.8997 35.0093C21.5696 35.2695 21.0745 35.0346 21.0745 34.6093Z" fill="black"/>
</svg>
