<svg width="50" height="50" viewBox="0 0 50 50" fill="none" xmlns="http://www.w3.org/2000/svg">
<path d="M48.125 13.7499C48.5781 13.75 49.0159 13.914 49.3573 14.2119C49.6988 14.5097 49.9209 14.9211 49.9825 15.3699L50 15.6249V36.8749C50.0001 38.9503 49.2061 40.947 47.7808 42.4555C46.3555 43.964 44.407 44.8699 42.335 44.9874L41.875 44.9999H10.1525L11.9525 46.7999C12.2697 47.1177 12.4623 47.5388 12.4953 47.9865C12.5283 48.4343 12.3996 48.8791 12.1325 49.2399L11.95 49.4499C11.6325 49.7675 11.2116 49.9606 10.7639 49.994C10.3161 50.0275 9.87118 49.8992 9.51 49.6324L9.3 49.4499L4.3 44.4499L4.14 44.2699C4.13412 44.2616 4.12829 44.2533 4.1225 44.2449L4.2975 44.4499C4.01235 44.1625 3.82746 43.7908 3.77026 43.39C3.71307 42.9892 3.78662 42.5806 3.98 42.2249C4.06662 42.0692 4.1743 41.9262 4.3 41.7999L9.3 36.7999C9.635 36.4675 10.083 36.2737 10.5547 36.2571C11.0263 36.2405 11.4868 36.4023 11.8444 36.7103C12.2019 37.0183 12.4302 37.4499 12.4836 37.9187C12.537 38.3876 12.4116 38.8594 12.1325 39.2399L11.95 39.4499L10.15 41.2499H41.875C42.9734 41.2499 44.0315 40.8366 44.8393 40.0923C45.647 39.348 46.1452 38.3271 46.235 37.2324L46.25 36.8749V15.6249C46.25 15.1277 46.4475 14.6507 46.7992 14.2991C47.1508 13.9475 47.6277 13.7499 48.125 13.7499ZM40.49 0.367442L40.7 0.549941L45.7 5.54994C45.7639 5.6131 45.8233 5.68078 45.8775 5.75244L45.7025 5.54994C46.0507 5.90041 46.247 6.37385 46.2489 6.86789C46.2507 7.36193 46.058 7.83685 45.7125 8.18994L45.7 8.19994L40.7 13.1999C40.365 13.5323 39.917 13.7262 39.4453 13.7428C38.9737 13.7594 38.5132 13.5975 38.1556 13.2895C37.7981 12.9815 37.5698 12.55 37.5164 12.0811C37.463 11.6122 37.5884 11.1405 37.8675 10.7599L38.05 10.5499L39.845 8.74994H8.125C7.02703 8.74998 5.96921 9.16287 5.16152 9.90664C4.35384 10.6504 3.85535 11.6707 3.765 12.7649L3.75 13.1249V34.3749C3.74985 34.85 3.56939 35.3073 3.24507 35.6544C2.92075 36.0015 2.47675 36.2126 2.0028 36.245C1.52885 36.2774 1.06027 36.1287 0.691753 35.8289C0.323236 35.5291 0.0822535 35.1006 0.0174999 34.6299L1.7438e-08 34.3749V13.1249C-0.000135867 11.0496 0.793885 9.05287 2.21918 7.54436C3.64447 6.03586 5.59298 5.12994 7.665 5.01244L8.125 4.99994H39.8475L38.0475 3.19994C37.7303 2.88216 37.5377 2.46111 37.5047 2.01335C37.4717 1.56558 37.6004 1.12083 37.8675 0.759941L38.05 0.549941C38.3675 0.232397 38.7884 0.0393269 39.2361 0.00583568C39.6839 -0.0276555 40.1288 0.100657 40.49 0.367442ZM25 14.9999C27.6522 14.9999 30.1957 16.0535 32.0711 17.9289C33.9464 19.8042 35 22.3478 35 24.9999C35 27.6521 33.9464 30.1956 32.0711 32.071C30.1957 33.9464 27.6522 34.9999 25 34.9999C22.3478 34.9999 19.8043 33.9464 17.9289 32.071C16.0536 30.1956 15 27.6521 15 24.9999C15 22.3478 16.0536 19.8042 17.9289 17.9289C19.8043 16.0535 22.3478 14.9999 25 14.9999Z" fill="black"/>
</svg>
