<svg width="90" height="74" viewBox="0 0 90 74" fill="none" xmlns="http://www.w3.org/2000/svg">
<path fill-rule="evenodd" clip-rule="evenodd" d="M17.0651 26.7435C18.0533 12.1773 30.1833 0.666626 45 0.666626C59.8795 0.666626 72.0494 12.2749 72.947 26.9286C82.3459 30.1222 89.1084 39.0191 89.1084 49.5C89.1084 62.6631 78.4381 73.3333 65.275 73.3333C63.0224 73.3333 60.8368 73.0192 58.7654 72.4321C57.1945 71.9869 56.2681 70.3673 56.6808 68.7876L60.8801 52.7123L47.113 66.3713C45.9388 67.5363 44.0431 67.5311 42.8754 66.3596L28.4274 51.8658C28.387 51.8252 28.3479 51.7837 28.3101 51.7412L32.7631 68.7876C33.1758 70.3676 32.2489 71.9875 30.6776 72.4324C28.6048 73.0191 26.4195 73.3333 24.1667 73.3333C11.0036 73.3333 0.333374 62.6631 0.333374 49.5C0.333374 38.8087 7.37185 29.7661 17.0651 26.7435ZM17.2301 33.0651C10.8262 35.7715 6.33337 42.1146 6.33337 49.5C6.33337 59.3494 14.3173 67.3333 24.1667 67.3333C24.8386 67.3333 25.5014 67.2961 26.1533 67.224L17.2301 33.0651ZM23.0661 31.6666H42V46.6509L30.5267 46.748C29.3189 46.7582 28.235 47.4918 27.7766 48.6094C27.7099 48.7718 27.6584 48.9378 27.6216 49.1055L23.0661 31.6666ZM42 52.6511L37.7183 52.6874L42.0022 56.9849C42.0008 56.947 42 56.909 42 56.8708V52.6511ZM44.8765 59.8683L45.0117 60.004L45.1497 59.8671C45.1001 59.8696 45.0502 59.8708 45 59.8708C44.9586 59.8708 44.9175 59.8699 44.8765 59.8683ZM47.9951 57.044C47.9984 56.9867 48 56.9289 48 56.8708V52.6004L52.5124 52.5622L47.9951 57.044ZM48 46.6002V31.6666H66.3778L62.2069 47.6331C61.6415 46.9219 60.7713 46.4921 59.833 46.5001L48 46.6002ZM66.7972 25.6666C65.3338 14.9362 56.1318 6.66663 45 6.66663C33.8682 6.66663 24.6663 14.9362 23.2029 25.6666H66.7972ZM72.2138 33.0652L63.2905 67.2242C63.9416 67.2962 64.6038 67.3333 65.275 67.3333C75.1244 67.3333 83.1084 59.3494 83.1084 49.5C83.1084 42.1143 78.6169 35.7715 72.2138 33.0652Z" fill="white"/>
</svg>
