<svg width="88" height="70" viewBox="0 0 88 70" fill="none" xmlns="http://www.w3.org/2000/svg">
<path d="M62.75 28.5547H25.25C24.8203 28.5547 24.4688 28.9062 24.4688 29.3359V68.5938C24.4688 69.0234 24.8203 69.375 25.25 69.375H62.75C63.1797 69.375 63.5312 69.0234 63.5312 68.5938V29.3359C63.5312 28.9062 63.1797 28.5547 62.75 28.5547ZM30.7188 34.8047H57.2812V46.2305H30.7188V34.8047ZM57.2812 63.125H30.7188V51.6992H57.2812V63.125Z" fill="white"/>
<path d="M35.4062 58.0469C35.4062 58.8757 35.7355 59.6705 36.3215 60.2566C36.9076 60.8426 37.7024 61.1719 38.5312 61.1719C39.3601 61.1719 40.1549 60.8426 40.741 60.2566C41.327 59.6705 41.6562 58.8757 41.6562 58.0469C41.6562 57.2181 41.327 56.4232 40.741 55.8372C40.1549 55.2511 39.3601 54.9219 38.5312 54.9219C37.7024 54.9219 36.9076 55.2511 36.3215 55.8372C35.7355 56.4232 35.4062 57.2181 35.4062 58.0469ZM35.4062 40.6641C35.4062 41.4929 35.7355 42.2877 36.3215 42.8738C36.9076 43.4598 37.7024 43.7891 38.5312 43.7891C39.3601 43.7891 40.1549 43.4598 40.741 42.8738C41.327 42.2877 41.6562 41.4929 41.6562 40.6641C41.6562 39.8353 41.327 39.0404 40.741 38.4544C40.1549 37.8683 39.3601 37.5391 38.5312 37.5391C37.7024 37.5391 36.9076 37.8683 36.3215 38.4544C35.7355 39.0404 35.4062 39.8353 35.4062 40.6641Z" fill="white"/>
<path d="M73.2383 21.0254C68.7657 9.21875 57.3692 0.820312 44.0196 0.820312C30.67 0.820312 19.2735 9.20898 14.8008 21.0156C6.39262 23.2324 0.201215 30.918 0.250043 40.0391C0.308636 50.2344 8.21879 58.5254 18.1797 59.4141C18.6387 59.4531 19.0293 59.0918 19.0293 58.6328V52.7344C19.0293 52.3437 18.7364 52.0117 18.3457 51.9629C15.709 51.6309 13.2188 50.4785 11.3047 48.5938C8.96098 46.2988 7.67192 43.2129 7.67192 39.9414C7.67192 37.207 8.56059 34.6289 10.2305 32.4805C11.8614 30.3906 14.1563 28.877 16.6856 28.2129L20.3868 27.2363L21.7442 23.6523C22.584 21.4258 23.7559 19.3359 25.2305 17.4512C26.6856 15.5762 28.4141 13.9355 30.3477 12.5684C34.3614 9.74609 39.0879 8.25195 44.0196 8.25195C48.9512 8.25195 53.6778 9.74609 57.6914 12.5781C59.6348 13.9453 61.3536 15.5859 62.8086 17.4609C64.2832 19.3457 65.4551 21.4355 66.295 23.6621L67.6426 27.2363L71.334 28.2129C76.627 29.6191 80.3282 34.4336 80.3282 39.9316C80.3282 43.2129 79.0391 46.2891 76.6954 48.584C74.7911 50.459 72.3106 51.6211 69.6739 51.9531C69.2832 52.0019 69 52.334 69 52.7246V58.6328C69 59.0918 69.4004 59.4531 69.8594 59.4141C79.7911 58.5156 87.6817 50.2344 87.75 40.0586C87.8086 30.9375 81.627 23.252 73.2383 21.0254Z" fill="white"/>
</svg>
