<svg width="84" height="84" viewBox="0 0 84 84" fill="none" xmlns="http://www.w3.org/2000/svg">
<path d="M81.5834 29.5H60.75L68.5 21.75C65.3882 17.6765 61.3777 14.3764 56.7812 12.1071C52.1847 9.83774 47.1262 8.66037 42 8.66671C23.5834 8.66671 8.66671 23.5834 8.66671 42C8.66671 49.625 11.2084 56.5834 15.5 62.2084C20.5834 56.375 30.125 52.4167 42 52.4167C53.875 52.4167 63.4584 56.375 68.5 62.2084C72.9453 56.4108 75.3478 49.3056 75.3334 42H83.6667C83.6667 64.9167 64.9167 83.6667 42 83.6667C19.0834 83.6667 0.333374 64.9167 0.333374 42C0.333374 19.0834 19.0834 0.333374 42 0.333374C55.0834 0.333374 66.7917 6.37504 74.4167 15.8334L81.5834 8.66671V29.5ZM42 21.1667C48.9167 21.1667 54.5 26.75 54.5 33.6667C54.5 40.5834 48.9167 46.1667 42 46.1667C35.0834 46.1667 29.5 40.5834 29.5 33.6667C29.5 26.75 35.0834 21.1667 42 21.1667Z" fill="white"/>
</svg>
